<svg version="1.1" id="Layer_1" xmlns:x="ns_extend;" xmlns:i="ns_ai;" xmlns:graph="ns_graphs;" xmlns="http://www.w3.org/2000/svg" xmlns:xlink="http://www.w3.org/1999/xlink" x="0px" y="0px" viewBox="0 0 79.3 88" style="enable-background:new 0 0 79.3 88;" xml:space="preserve">
 <style type="text/css">
  .st0{fill-rule:evenodd;clip-rule:evenodd;fill:#57B7DD;}
	.st1{fill-rule:evenodd;clip-rule:evenodd;fill:#F99132;}
	.st2{fill-rule:evenodd;clip-rule:evenodd;fill:#A98BBC;}
	.st3{fill-rule:evenodd;clip-rule:evenodd;fill:#FF6D56;}
	.st4{fill-rule:evenodd;clip-rule:evenodd;fill:#8AC539;}
	.st5{fill-rule:evenodd;clip-rule:evenodd;fill:#FFBE0A;}
 </style>
 <metadata>
  <sfw xmlns="ns_sfw;">
   <slices>
   </slices>
   <sliceSourceBounds bottomLeftOrigin="true" height="88" width="79.3" x="4.3" y="-244.1">
   </sliceSourceBounds>
  </sfw>
 </metadata>
 <g>
  <path class="st0" d="M0,26.7v23.1l27,12.8l27.7-29.1l-18.1-33c-0.6,0.2-1.1,0.4-1.7,0.8L4.9,18.5C1.9,20.2,0,23.3,0,26.7">
  </path>
  <path class="st1" d="M27.1,62.6L59.7,78l14.8-8.5l-19.7-36L27.1,62.6z">
  </path>
  <path class="st2" d="M70.9,16.4L44.4,1.2c-2.4-1.3-5.2-1.6-7.7-0.8l18.1,33L70.9,16.4L70.9,16.4z">
  </path>
  <path class="st3" d="M74.5,69.4L74.5,69.4c3-1.7,4.8-4.8,4.8-8.2V26.7c0-3.4-1.8-6.5-4.7-8.2l-3.6-2l-16.2,17L74.5,69.4L74.5,69.4z
		">
  </path>
  <path class="st4" d="M0,49.8v11.4c0,3.4,1.9,6.5,4.8,8.2L15,75.3l12.1-12.7L0,49.8z">
  </path>
  <path class="st5" d="M15,75.3l19.9,11.4c3,1.7,6.6,1.7,9.5,0L59.7,78L27.1,62.6C27.1,62.6,15,75.3,15,75.3z">
  </path>
 </g>
</svg>